<svg xmlns="http://www.w3.org/2000/svg" viewBox="0 0 512 512" role="img" aria-labelledby="title desc">
  <title id="title">Axborot Texnologiyalari va Menejment Universiteti logo</title>
  <desc id="desc">Blue ATM university monogram used as the official cloude.uz project logo.</desc>
  <rect width="512" height="512" fill="#fff"/>
  <g fill="none" stroke="#030d86" stroke-linecap="butt" stroke-linejoin="miter">
    <path d="M150 80A208 208 0 0 0 65 198" stroke-width="30"/>
    <path d="M65 314a208 208 0 0 0 85 118" stroke-width="30"/>
    <path d="M362 80a208 208 0 0 1 85 118" stroke-width="30"/>
    <path d="M447 314a208 208 0 0 1-85 118" stroke-width="30"/>
    <path d="M23 256h112" stroke-width="30"/>
    <path d="M377 256h112" stroke-width="30"/>
    <path d="M188 37h136" stroke-width="30"/>
    <path d="M188 475h136" stroke-width="30"/>
    <path d="M186 53v406" stroke-width="30"/>
    <path d="M326 53v406" stroke-width="30"/>
  </g>
  <path d="M142 448V112h52l64 196 64-196h52v336h-47V211L274 363h-32L189 211v237z" fill="#030d86"/>
  <path d="M135 112h106v44h-32v292h-49V156h-25z" fill="#030d86"/>
  <path d="M271 112h106v44h-25v292h-49V156h-32z" fill="#030d86"/>
</svg>
