<svg xmlns="http://www.w3.org/2000/svg" viewBox="0 0 64 64" role="img" aria-label="ATM logo">
  <rect width="64" height="64" fill="#fff"/>
  <g fill="none" stroke="#030d86" stroke-linecap="butt">
    <path d="M19 10A26 26 0 0 0 8 25" stroke-width="4"/>
    <path d="M8 39a26 26 0 0 0 11 15" stroke-width="4"/>
    <path d="M45 10a26 26 0 0 1 11 15" stroke-width="4"/>
    <path d="M56 39a26 26 0 0 1-11 15" stroke-width="4"/>
    <path d="M3 32h14M47 32h14M23 5h18M23 59h18M23 7v50M41 7v50" stroke-width="4"/>
  </g>
  <path d="M18 56V14h7l7 24 7-24h7v42h-6V27l-6 19h-4l-6-19v29z" fill="#030d86"/>
</svg>
