<svg xmlns="http://www.w3.org/2000/svg" viewBox="0 0 420 420" role="img" aria-labelledby="title desc">
  <title id="title">Cloud Education Platform logo</title>
  <desc id="desc">Official cloude.uz brand mark for Axborot Texnologiyalari va Menejment Universiteti.</desc>
  <defs>
    <linearGradient id="g" x1="74" y1="64" x2="346" y2="356" gradientUnits="userSpaceOnUse">
      <stop offset="0" stop-color="#38bdf8"/>
      <stop offset=".45" stop-color="#4f46e5"/>
      <stop offset="1" stop-color="#10b981"/>
    </linearGradient>
    <linearGradient id="cloud" x1="104" y1="150" x2="316" y2="286" gradientUnits="userSpaceOnUse">
      <stop offset="0" stop-color="#fff"/>
      <stop offset="1" stop-color="#dbeafe"/>
    </linearGradient>
    <filter id="shadow" x="-30%" y="-30%" width="160%" height="160%">
      <feDropShadow dx="0" dy="22" stdDeviation="24" flood-color="#1e1b4b" flood-opacity=".22"/>
    </filter>
  </defs>
  <rect width="420" height="420" rx="96" fill="#f8fafc"/>
  <path d="M72 210c0-76 62-138 138-138s138 62 138 138-62 138-138 138S72 286 72 210Z" fill="url(#g)" filter="url(#shadow)"/>
  <path d="M127 236c0-28 23-51 51-51 8-31 36-53 69-53 40 0 73 33 73 73v2c23 5 40 25 40 49 0 28-23 50-51 50H159c-31 0-56-25-56-56 0-5 1-10 2-14h22Z" fill="url(#cloud)" opacity=".96"/>
  <path d="M156 235c0-33 27-60 60-60 18 0 35 8 46 21" fill="none" stroke="#4f46e5" stroke-width="15" stroke-linecap="round"/>
  <path d="M210 275V150" stroke="#0f172a" stroke-width="18" stroke-linecap="round"/>
  <path d="M172 187h76" stroke="#0f172a" stroke-width="18" stroke-linecap="round"/>
  <path d="M166 275h88" stroke="#0f172a" stroke-width="18" stroke-linecap="round"/>
</svg>
