<svg xmlns="http://www.w3.org/2000/svg" viewBox="0 0 64 64">
  <defs>
    <linearGradient id="g" x1="10" y1="8" x2="54" y2="56">
      <stop offset="0" stop-color="#38bdf8"/>
      <stop offset=".45" stop-color="#4f46e5"/>
      <stop offset="1" stop-color="#10b981"/>
    </linearGradient>
  </defs>
  <rect width="64" height="64" rx="16" fill="url(#g)"/>
  <path d="M17 38c0-5 4-9 9-9 2-7 8-12 16-12 9 0 16 7 16 16 4 1 7 5 7 10 0 6-5 10-11 10H24c-7 0-12-5-12-12 0-1 0-2 1-3h4Z" fill="#fff" opacity=".95" transform="scale(.82) translate(3 2)"/>
  <path d="M32 45V18M23 27h18M23 45h18" stroke="#0f172a" stroke-width="5" stroke-linecap="round"/>
</svg>
